<?xml version="1.0" standalone="no"?>
<!DOCTYPE svg PUBLIC "-//W3C//DTD SVG 20010904//EN"
 "http://www.w3.org/TR/2001/REC-SVG-20010904/DTD/svg10.dtd">
<svg version="1.0" xmlns="http://www.w3.org/2000/svg"
 width="225.000000pt" height="225.000000pt" viewBox="0 0 225.000000 225.000000"
 preserveAspectRatio="xMidYMid meet">

<g transform="translate(0.000000,225.000000) scale(0.100000,-0.100000)"
fill="#000000" stroke="none">
<path d="M532 1730 c-56 -34 -77 -115 -48 -184 10 -23 27 -39 60 -54 25 -12
50 -22 56 -22 5 0 19 -9 30 -20 36 -36 19 -120 -25 -120 -18 0 -45 28 -45 46
0 10 -13 14 -45 14 -42 0 -45 -2 -45 -27 0 -91 106 -139 206 -94 52 24 68 60
62 146 -5 77 -21 98 -100 130 -64 26 -88 60 -70 99 17 39 60 36 74 -5 10 -28
13 -30 52 -27 39 3 41 5 38 32 -2 16 -10 42 -17 57 -26 49 -124 65 -183 29z"/>
<path d="M1201 1725 c-45 -38 -56 -83 -56 -230 0 -112 3 -136 21 -169 39 -75
133 -97 202 -47 46 32 57 77 57 231 0 147 -9 178 -61 219 -40 32 -123 29 -163
-4z m120 -71 c15 -18 20 -238 6 -286 -10 -37 -44 -46 -70 -19 -19 19 -21 32
-21 148 0 84 4 136 12 151 15 26 53 29 73 6z"/>
<path d="M1510 1506 l0 -246 45 0 45 0 0 90 0 90 48 0 c61 0 93 17 114 60 22
44 24 140 3 184 -23 49 -49 60 -157 64 l-98 4 0 -246z m162 147 c11 -10 18
-30 18 -55 0 -58 -14 -78 -55 -78 l-35 0 0 75 c0 75 0 75 27 75 14 0 35 -7 45
-17z"/>
<path d="M780 1700 l0 -40 60 0 60 0 0 -200 0 -200 45 0 45 0 0 200 0 200 55
0 55 0 0 40 0 40 -160 0 -160 0 0 -40z"/>
<path d="M470 1125 l0 -35 655 0 655 0 0 35 0 35 -655 0 -655 0 0 -35z"/>
<path d="M545 986 c-48 -21 -69 -61 -70 -132 0 -75 10 -88 95 -126 35 -16 68
-35 72 -41 12 -19 9 -82 -4 -95 -27 -27 -78 -7 -78 30 0 15 -8 18 -45 18 -41
0 -45 -2 -45 -24 0 -95 112 -148 210 -98 45 22 60 53 60 127 0 83 -14 105 -90
141 -85 41 -93 50 -86 87 11 54 48 63 74 17 15 -26 23 -30 59 -30 42 0 42 0
37 33 -9 47 -31 77 -69 93 -42 17 -81 17 -120 0z"/>
<path d="M1231 982 c-60 -30 -71 -67 -71 -230 0 -162 10 -200 64 -234 23 -14
44 -18 84 -15 105 8 138 79 130 282 -5 124 -19 164 -71 195 -40 25 -91 25
-136 2z m100 -79 c10 -12 14 -52 14 -153 0 -143 -7 -170 -46 -170 -42 0 -49
24 -49 163 0 104 3 137 16 155 18 26 46 29 65 5z"/>
<path d="M810 750 l0 -240 45 0 45 0 0 100 0 100 45 0 45 0 0 -100 0 -100 45
0 45 0 0 240 0 240 -45 0 -45 0 0 -101 0 -100 -42 3 -43 3 -3 98 -3 97 -44 0
-45 0 0 -240z"/>
<path d="M1510 750 l0 -240 45 0 45 0 0 84 0 83 52 6 c57 7 96 30 115 68 18
34 16 144 -2 179 -26 51 -50 60 -157 60 l-98 0 0 -240z m168 148 c7 -7 12 -33
12 -59 0 -52 -23 -79 -67 -79 -22 0 -23 4 -23 75 l0 75 33 0 c18 0 38 -5 45
-12z"/>
</g>
</svg>
