<?xml version="1.0" standalone="no"?>
<!DOCTYPE svg PUBLIC "-//W3C//DTD SVG 20010904//EN"
 "http://www.w3.org/TR/2001/REC-SVG-20010904/DTD/svg10.dtd">
<svg version="1.0" xmlns="http://www.w3.org/2000/svg"
 width="321.000000pt" height="157.000000pt" viewBox="0 0 321.000000 157.000000"
 preserveAspectRatio="xMidYMid meet">

<g transform="translate(0.000000,157.000000) scale(0.100000,-0.100000)"
fill="#000000" stroke="none">
<path d="M883 1227 c-10 -13 -67 -124 -128 -245 -60 -122 -114 -222 -119 -222
-8 0 -2 114 15 270 14 136 12 178 -10 190 -33 17 -58 11 -85 -20 -28 -33 -136
-250 -239 -480 -36 -80 -86 -190 -111 -245 -54 -118 -57 -141 -19 -156 40 -15
91 8 114 51 10 19 60 134 110 255 108 261 112 269 105 195 -3 -30 -13 -149
-22 -264 -15 -201 -15 -210 2 -223 21 -15 48 -17 73 -3 11 5 48 83 92 192 41
101 131 299 201 441 71 142 128 265 128 273 0 10 -13 14 -44 14 -35 0 -49 -5
-63 -23z"/>
<path d="M1073 1228 c-35 -37 -153 -289 -159 -339 -5 -39 -3 -50 15 -68 17
-17 33 -21 91 -21 64 0 70 -2 70 -21 0 -11 -43 -92 -95 -180 -128 -214 -142
-244 -125 -263 16 -20 69 -21 96 -1 12 8 60 92 106 187 47 95 136 256 198 358
210 345 203 331 166 356 -48 31 -67 15 -165 -139 -50 -79 -99 -151 -108 -159
-42 -37 -103 -29 -103 14 0 11 19 61 41 112 73 160 71 153 53 170 -22 23 -57
20 -81 -6z"/>
<path d="M1605 1238 c-30 -17 -47 -40 -149 -198 -125 -194 -299 -522 -347
-654 -13 -35 -12 -39 6 -52 24 -18 47 -18 88 -1 37 16 36 14 122 217 36 85 76
170 88 190 l21 35 71 -219 c73 -226 84 -246 135 -246 44 0 66 26 136 158 37
70 68 128 68 129 4 5 260 52 264 48 2 -2 -5 -44 -18 -93 -22 -91 -30 -188 -16
-210 10 -17 77 -15 103 3 28 19 38 54 58 200 19 129 27 145 78 145 23 0 28 -4
25 -17 -3 -10 -24 -84 -48 -165 -36 -122 -41 -150 -30 -163 15 -18 83 -20 98
-2 5 6 24 64 42 127 60 216 70 248 84 253 7 3 38 8 68 12 l55 7 6 -174 c4 -95
10 -186 15 -203 8 -28 12 -30 60 -33 45 -3 53 0 68 23 16 25 16 35 0 168 -9
78 -16 165 -16 193 l0 51 138 23 c75 12 145 27 155 32 14 7 17 19 15 51 -3 41
-4 42 -43 45 -22 1 -92 -8 -155 -21 l-115 -24 -8 161 c-10 198 -16 211 -80
210 -37 0 -53 -6 -72 -25 -13 -13 -62 -112 -109 -219 l-85 -195 -51 -13 c-29
-7 -54 -12 -55 -10 -2 2 6 62 16 133 10 72 22 171 25 221 6 86 6 92 -14 103
-28 15 -74 14 -95 -1 -30 -23 -236 -290 -349 -453 -167 -239 -179 -256 -188
-250 -9 6 -106 229 -115 268 -9 35 6 53 94 108 267 169 411 271 411 293 0 22
-35 46 -66 46 -37 0 -64 -17 -235 -146 -150 -113 -219 -158 -204 -134 5 8 44
68 87 133 45 68 75 124 72 132 -7 18 -79 20 -109 3z m1004 -315 l1 -71 -51
-11 c-29 -6 -54 -10 -56 -7 -2 2 17 65 44 140 l48 136 6 -58 c4 -31 7 -89 8
-129z m-451 -10 c-16 -87 -31 -160 -34 -162 -6 -7 -199 -49 -203 -44 -8 6 247
363 259 363 4 0 -6 -71 -22 -157z"/>
</g>
</svg>
